<svg width="28" height="28" viewBox="0 0 28 28" fill="none" xmlns="http://www.w3.org/2000/svg">
<path d="M16.8813 16.8813C17.1967 16.5659 17.693 16.5416 18.0363 16.8085L18.1187 16.8813L23.3687 22.1313C23.7104 22.473 23.7104 23.027 23.3687 23.3687C23.0533 23.6841 22.557 23.7084 22.2137 23.4415L22.1313 23.3687L16.8813 18.1187C16.5396 17.777 16.5396 17.223 16.8813 16.8813Z" fill="#3F494E"/>
<path fill-rule="evenodd" clip-rule="evenodd" d="M4.375 12.25C4.375 7.90076 7.90076 4.375 12.25 4.375C16.5992 4.375 20.125 7.90076 20.125 12.25C20.125 16.5992 16.5992 20.125 12.25 20.125C7.90076 20.125 4.375 16.5992 4.375 12.25ZM18.375 12.25C18.375 8.86726 15.6327 6.125 12.25 6.125C8.86726 6.125 6.125 8.86726 6.125 12.25C6.125 15.6327 8.86726 18.375 12.25 18.375C15.6327 18.375 18.375 15.6327 18.375 12.25Z" fill="#3F494E"/>
</svg>
