<svg width="222" height="29" viewBox="0 0 222 29" fill="none" xmlns="http://www.w3.org/2000/svg">
<rect width="221.125" height="29" fill="white"/>
<rect width="22.04" height="29" fill="#2A4198"/>
<rect x="9.86023" y="9.85938" width="12.18" height="19.14" fill="#E60044"/>
<path d="M10.1504 20.3007H4.06042C7.77242 12.8767 14.6938 12.7607 17.6904 13.6307C13.0504 14.7907 10.7304 18.5607 10.1504 20.3007Z" fill="white"/>
<path d="M36.555 22.207V9.17757H31.8578V7.09449H43.6211V9.17757H38.924V22.207H36.555Z" fill="black"/>
<path d="M57.7135 22.207V7.09449H62.8804C64.0921 7.09449 65.154 7.31232 66.0662 7.748C66.9784 8.17006 67.7341 8.74189 68.3331 9.46348C68.9458 10.1851 69.4019 10.9952 69.7014 11.8937C70.0146 12.7923 70.1711 13.7113 70.1711 14.6508C70.1711 15.5902 70.0146 16.5092 69.7014 17.4078C69.4019 18.3064 68.9458 19.1164 68.3331 19.838C67.7341 20.5596 66.9784 21.1383 66.0662 21.5739C65.154 21.996 64.0921 22.207 62.8804 22.207H57.7135ZM62.7782 9.17757H60.1029V20.1035H62.7782C63.6224 20.1035 64.3576 19.9538 64.9839 19.6542C65.6101 19.3411 66.1275 18.9258 66.536 18.4085C66.9444 17.8775 67.2507 17.292 67.455 16.6521C67.6728 15.9986 67.7817 15.3315 67.7817 14.6508C67.7817 13.97 67.6728 13.3029 67.455 12.6494C67.2507 11.9959 66.9444 11.4104 66.536 10.893C66.1275 10.3757 65.6101 9.96042 64.9839 9.64728C64.3576 9.33414 63.6224 9.17757 62.7782 9.17757Z" fill="black"/>
<path d="M47.8235 21.4906C47.0198 21.4906 46.2792 21.3471 45.6018 21.06C44.9244 20.7615 44.3847 20.3367 43.9828 19.7855C43.581 19.2344 43.38 18.5684 43.38 17.7877C43.38 16.9839 43.6039 16.295 44.0517 15.7209C44.511 15.1354 45.131 14.6244 45.9118 14.1881V14.1709C45.6133 13.8379 45.3262 13.4533 45.0507 13.0169C44.7866 12.5691 44.6545 12.0238 44.6545 11.3808C44.6545 10.7263 44.8038 10.1809 45.1023 9.7446C45.4123 9.2968 45.8085 8.96383 46.2907 8.74567C46.7844 8.51603 47.3011 8.40121 47.8408 8.40121C48.3689 8.40121 48.8684 8.51029 49.3391 8.72845C49.8099 8.93512 50.1945 9.24513 50.4931 9.65848C50.7916 10.0718 50.9409 10.577 50.9409 11.1741C50.9409 11.886 50.717 12.5117 50.2692 13.0514C49.8214 13.591 49.2186 14.0618 48.4608 14.4637L51.3026 17.6327C51.5092 17.1734 51.67 16.6452 51.7848 16.0482C51.8996 15.4511 51.957 14.7737 51.957 14.0159H53.5932C53.5932 15.0722 53.4899 16.008 53.2832 16.8232C53.088 17.6269 52.8124 18.3273 52.4565 18.9244L54.5921 21.3011H52.1465L51.2853 20.3194C50.7916 20.7213 50.252 21.0198 49.6664 21.215C49.0808 21.3987 48.4665 21.4906 47.8235 21.4906ZM46.3424 11.3119C46.3424 11.6793 46.4572 12.0295 46.6868 12.3625C46.9165 12.684 47.192 13.0227 47.5135 13.3786H47.548C48.0532 13.126 48.4608 12.8275 48.7708 12.483C49.0923 12.1271 49.253 11.7195 49.253 11.2602C49.253 10.8009 49.1095 10.4565 48.8225 10.2268C48.5469 9.98572 48.2197 9.86516 47.8408 9.86516C47.4504 9.86516 47.1002 9.9972 46.7902 10.2613C46.4916 10.5139 46.3424 10.8641 46.3424 11.3119ZM45.2057 17.6327C45.2057 18.3331 45.464 18.8842 45.9807 19.2861C46.5089 19.6879 47.1576 19.8889 47.9269 19.8889C48.3517 19.8889 48.7593 19.8257 49.1497 19.6994C49.5401 19.5731 49.896 19.3722 50.2175 19.0966L46.8591 15.2731C46.3539 15.5717 45.952 15.9161 45.6535 16.3065C45.3549 16.6854 45.2057 17.1275 45.2057 17.6327Z" fill="black"/>
<g clip-path="url(#clip0_2185_16737)">
<path d="M72.5001 7.62109V9.4164H83.7649V10.3415C83.7649 10.3415 83.8198 18.8858 73.9702 20.1911V21.6597C73.9702 21.6597 86.4578 22.4764 86.4578 7.62109H72.5001Z" fill="black"/>
<path d="M96.8249 8.92578C96.8249 8.92578 96.9883 13.6598 87.0303 15.2108V16.8847C87.0303 16.8847 91.8871 16.3542 93.4786 15.2108V21.6678H95.7032V14.2524C95.7032 14.2524 98.2126 12.6812 99.7232 8.92578H96.8249Z" fill="black"/>
<path d="M101.028 10.8832V12.3114H107.68C107.68 12.3114 108.741 19.0459 102.497 20.2703V21.6666C102.497 21.6666 110.782 21.3327 110.415 12.3533H115.639V10.8847H110.333V7.04688H107.638V10.915L101.027 10.8847L101.028 10.8832Z" fill="black"/>
<path d="M116.961 7.04688V8.65282C116.961 8.65282 120.933 9.19632 123.927 10.7213V7.78263C123.927 7.78263 119.953 7.12927 116.961 7.04688Z" fill="black"/>
<path d="M129.858 10.7241C129.858 10.7241 129.476 19.1051 116.961 18.9952V21.6694C116.961 21.6694 130.62 22.4239 131.22 10.7227H129.859L129.858 10.7241Z" fill="black"/>
<path d="M132.905 7.04862C132.905 7.04862 134.429 6.80433 139.489 7.51118V10.3415C139.489 10.3415 137.109 8.6748 132.905 8.88584V7.04862Z" fill="black"/>
<path d="M132.905 11.6465H139.489V14.9119C139.489 14.9119 136.714 13.2799 132.905 13.2799V11.6479V11.6465Z" fill="black"/>
<path d="M145.693 10.3398C145.693 10.3398 146.129 18.8842 132.905 19.0475V21.6682C132.905 21.6682 147 22.3129 147.435 10.3413H145.693V10.3398Z" fill="black"/>
<path d="M148.794 10.9408H150.753V8.88672H153.093V10.9408H162.563C162.563 10.9408 161.529 17.9601 156.195 18.2868V16.9266C156.195 16.9266 158.644 16.6548 159.461 12.6277H153.638L154.455 21.4437H152.115L151.135 12.791H148.794V10.9408Z" fill="black"/>
<path d="M165.011 7.00781V13.2798C165.011 13.2798 165.283 18.7756 162.563 20.6258V21.6738C162.563 21.6738 167.352 20.4075 167.352 14.15V7.00781H165.011Z" fill="black"/>
<path d="M169.8 7.00781V21.6738C169.8 21.6738 177.691 21.6593 177.854 11.1029H176.542C176.542 11.1029 176.439 16.8169 172.14 18.3954V7.00781H169.8Z" fill="black"/>
<path d="M181.446 7.00781H183.894C183.894 7.00781 184.166 7.13068 183.459 9.57935H186.398V7.00781H188.52V9.57935H193.744V11.4845H188.575V14.3423H193.02V15.8933H188.575V19.7845H193.744V21.444H179.694V19.7021H186.616V15.8933H181.674V14.3423H186.616V11.4296H182.752C182.752 11.4296 181.756 12.8042 179.487 14.15V13.0081C179.487 13.0081 181.664 10.967 181.446 7.00781Z" fill="black"/>
<path d="M196.52 13.498V20.2456H202.561V13.498H196.52ZM200.547 18.777H198.207V14.9681H200.547V18.777Z" fill="black"/>
<path d="M203.867 13.498V21.6738H205.77V14.9667H208.057V18.7755H206.859V20.2456H209.907V13.498H203.867Z" fill="black"/>
<path d="M204.859 7.00781H202.071C202.071 7.00781 200.003 9.19774 195.704 10.3411V11.3544C195.704 11.3544 196.958 11.3746 198.207 10.8846V12.1914H207.785V10.8716C207.785 10.8716 209.203 11.538 211.121 11.4021V10.2862C211.121 10.2862 207.896 10.0289 204.859 7.00781ZM199.377 10.8037C199.377 10.8037 201.795 9.59958 203.019 7.96762H204.02C204.02 7.96762 205.244 9.70221 206.887 10.8037H199.378H199.377Z" fill="black"/>
</g>
<defs>
<clipPath id="clip0_2185_16737">
<rect width="138.62" height="14.6703" fill="white" transform="translate(72.5001 7.00781)"/>
</clipPath>
</defs>
</svg>
