<svg width="32" height="42" viewBox="0 0 32 42" fill="none" xmlns="http://www.w3.org/2000/svg">
<path d="M18.7937 0H0V42H32V13L18.7937 0Z" fill="#A4A3A3"/>
<path d="M2 40V2H19.0196V12.5556H30V40H2Z" fill="white"/>
<path d="M5.85449 28.8271H9.08203C9.72005 28.8271 10.2344 29.0078 10.625 29.3691C11.0156 29.7272 11.2109 30.2318 11.2109 30.8828C11.2109 31.4427 11.0368 31.931 10.6885 32.3477C10.3402 32.7611 9.80469 32.9678 9.08203 32.9678H6.82617V36H5.85449V28.8271ZM10.2295 30.8877C10.2295 30.3604 10.0342 30.0023 9.64355 29.8135C9.42871 29.7126 9.13411 29.6621 8.75977 29.6621H6.82617V32.1475H8.75977C9.19596 32.1475 9.54915 32.0547 9.81934 31.8691C10.0928 31.6836 10.2295 31.3564 10.2295 30.8877ZM15.7855 35.1699C16.1143 35.1699 16.3845 35.1357 16.5961 35.0674C16.9737 34.9404 17.2829 34.6963 17.5238 34.335C17.7159 34.0452 17.8542 33.6742 17.9389 33.2217C17.9877 32.9515 18.0121 32.7008 18.0121 32.4697C18.0121 31.5811 17.8347 30.891 17.4799 30.3994C17.1283 29.9079 16.5603 29.6621 15.7758 29.6621H14.0521V35.1699H15.7855ZM13.0756 28.8271H15.9809C16.9672 28.8271 17.7322 29.1771 18.2758 29.877C18.7608 30.5085 19.0033 31.3174 19.0033 32.3037C19.0033 33.0654 18.8601 33.7539 18.5736 34.3691C18.0691 35.4564 17.2016 36 15.9711 36H13.0756V28.8271ZM20.951 28.8271H25.9266V29.7061H21.9227V31.8838H25.4432V32.7383H21.9227V36H20.951V28.8271Z" fill="#A4A3A3"/>
</svg>
