<svg width="17" height="18" viewBox="0 0 17 18" fill="none" xmlns="http://www.w3.org/2000/svg">
<path d="M8.5 17.5C13.1944 17.5 17 13.6944 17 9C17 4.30558 13.1944 0.5 8.5 0.5C3.80558 0.5 0 4.30558 0 9C0 13.6944 3.80558 17.5 8.5 17.5Z" fill="white"/>
<path d="M17.001 9C17.001 10.6811 16.5025 12.3245 15.5685 13.7223C14.6345 15.1202 13.307 16.2096 11.7538 16.853C10.2006 17.4963 8.49155 17.6646 6.84271 17.3367C5.19387 17.0087 3.67932 16.1992 2.49057 15.0104C1.30183 13.8217 0.49228 12.3071 0.164305 10.6583C-0.163669 9.00943 0.00465953 7.30036 0.648004 5.74719C1.29135 4.19402 2.38082 2.8665 3.77863 1.93251C5.17645 0.998516 6.81984 0.5 8.50098 0.5C10.7553 0.5 12.9173 1.39553 14.5114 2.98959C16.1054 4.58365 17.001 6.74566 17.001 9ZM7.51798 13.5L13.824 7.194C13.875 7.1431 13.9155 7.08262 13.9431 7.01604C13.9708 6.94946 13.985 6.87809 13.985 6.806C13.985 6.73392 13.9708 6.66254 13.9431 6.59596C13.9155 6.52938 13.875 6.46891 13.824 6.418L13.048 5.642C12.9971 5.59096 12.9366 5.55047 12.87 5.52284C12.8034 5.49521 12.7321 5.48099 12.66 5.48099C12.5879 5.48099 12.5165 5.49521 12.4499 5.52284C12.3834 5.55047 12.3229 5.59096 12.272 5.642L7.12998 10.787L4.72998 8.387C4.67907 8.33596 4.6186 8.29547 4.55202 8.26784C4.48544 8.24021 4.41406 8.22599 4.34198 8.22599C4.2699 8.22599 4.19852 8.24021 4.13194 8.26784C4.06536 8.29547 4.00489 8.33596 3.95398 8.387L3.17798 9.163C3.12694 9.21391 3.08645 9.27438 3.05882 9.34096C3.03119 9.40754 3.01697 9.47892 3.01697 9.551C3.01697 9.62308 3.03119 9.69446 3.05882 9.76104C3.08645 9.82762 3.12694 9.88809 3.17798 9.939L6.73798 13.501C6.78889 13.552 6.84936 13.5925 6.91594 13.6202C6.98252 13.6478 7.0539 13.662 7.12598 13.662C7.19807 13.662 7.26944 13.6478 7.33602 13.6202C7.4026 13.5925 7.46308 13.552 7.51398 13.501L7.51798 13.5Z" fill="#2BBC7F"/>
</svg>
