<svg width="350" height="531" viewBox="0 0 350 531" fill="none" xmlns="http://www.w3.org/2000/svg">
<rect width="350" height="531" fill="#D9D9D9"/>
<g clip-path="url(#clip0_2100_15250)">
<path d="M194.477 265.319H140.191V297.252H194.477V265.319Z" fill="#D9D9D9"/>
<path d="M200.572 295.29V247.142C200.567 245.098 199.753 243.14 198.307 241.694C196.862 240.249 194.904 239.435 192.86 239.43H144.712C142.668 239.435 140.709 240.249 139.264 241.694C137.819 243.14 137.005 245.098 137 247.142V295.306C137.005 297.35 137.819 299.308 139.264 300.754C140.709 302.199 142.668 303.013 144.712 303.018H192.879C194.921 303.002 196.873 302.182 198.313 300.735C199.754 299.288 200.565 297.332 200.572 295.29ZM156.741 274.106L164.922 285.666L176.967 268.329L192.86 291.445H144.712L156.741 274.106Z" fill="#F6F6F6"/>
<path d="M205.288 227H157.139C155.096 227.005 153.137 227.819 151.692 229.264C150.247 230.709 149.433 232.668 149.428 234.712V235.67H196.618C198.659 235.675 200.615 236.487 202.06 237.928C203.505 239.37 204.32 241.325 204.33 243.366V290.575H205.288C207.331 290.57 209.29 289.756 210.735 288.311C212.18 286.866 212.994 284.907 213 282.863V234.712C212.994 232.668 212.18 230.709 210.735 229.264C209.29 227.819 207.331 227.005 205.288 227Z" fill="#F6F6F6"/>
</g>
<defs>
<clipPath id="clip0_2100_15250">
<rect width="76" height="76.016" fill="white" transform="translate(137 227)"/>
</clipPath>
</defs>
</svg>
