<svg width="23" height="22" viewBox="0 0 23 22" fill="none" xmlns="http://www.w3.org/2000/svg">
<g clip-path="url(#clip0_1050_4362)">
<path d="M17.1386 11.0901H1.42432V20.3338H17.1386V11.0901Z" fill="white"/>
<path d="M18.9024 19.7659V5.82822C18.9009 5.23662 18.6652 4.66966 18.2469 4.25133C17.8286 3.833 17.2616 3.59733 16.67 3.59587H2.73235C2.14075 3.59733 1.57379 3.833 1.15546 4.25133C0.737128 4.66966 0.501464 5.23662 0.5 5.82822V19.7705C0.501464 20.3621 0.737128 20.9291 1.15546 21.3474C1.57379 21.7657 2.14075 22.0014 2.73235 22.0028H16.6755C17.2665 21.9982 17.8317 21.7607 18.2486 21.3419C18.6655 20.9231 18.9004 20.3568 18.9024 19.7659ZM6.21445 13.6336L8.58269 16.9798L12.0694 11.9614L16.67 18.6529H2.73235L6.21445 13.6336Z" fill="#2E4193"/>
<path d="M20.2677 -0.00231171H6.33001C5.7384 -0.000847327 5.17145 0.234816 4.75312 0.653147C4.33478 1.07148 4.09912 1.63843 4.09766 2.23004V2.50735H17.758C18.3488 2.50881 18.9151 2.74384 19.3333 3.16117C19.7515 3.57851 19.9877 4.14428 19.9903 4.73508V18.401H20.2677C20.8593 18.3995 21.4262 18.1638 21.8446 17.7455C22.2629 17.3272 22.4985 16.7602 22.5 16.1686V2.23004C22.4985 1.63843 22.2629 1.07148 21.8446 0.653147C21.4262 0.234816 20.8593 -0.000847327 20.2677 -0.00231171Z" fill="#2E4193"/>
</g>
<defs>
<clipPath id="clip0_1050_4362">
<rect width="22" height="22.0046" fill="white" transform="translate(0.5 -0.00231171)"/>
</clipPath>
</defs>
</svg>
