<svg width="178" height="25" viewBox="0 0 178 25" fill="none" xmlns="http://www.w3.org/2000/svg">
<rect width="178" height="24.4506" fill="white"/>
<rect width="18.5824" height="24.4506" fill="#2A4198"/>
<rect x="8.31348" y="8.31311" width="10.2692" height="16.1374" fill="#E60044"/>
<path d="M8.55747 17.1154H3.42285C6.55252 10.856 12.3881 10.7582 14.9146 11.4917C11.0025 12.4697 9.04648 15.6483 8.55747 17.1154Z" fill="white"/>
<path d="M30.9184 18.467V7.48161H26.9581V5.72532H36.876V7.48161H32.9157V18.467H30.9184Z" fill="black"/>
<path d="M48.4137 18.467V5.72532H52.77C53.7916 5.72532 54.687 5.90898 55.4561 6.27631C56.2252 6.63216 56.8623 7.11428 57.3673 7.72267C57.8839 8.33106 58.2684 9.01406 58.521 9.77167C58.785 10.5293 58.917 11.3041 58.917 12.0962C58.917 12.8882 58.785 13.6631 58.521 14.4207C58.2684 15.1783 57.8839 15.8613 57.3673 16.4697C56.8623 17.0781 56.2252 17.5659 55.4561 17.9333C54.687 18.2891 53.7916 18.467 52.77 18.467H48.4137ZM52.6839 7.48161H50.4283V16.6935H52.6839C53.3956 16.6935 54.0155 16.5673 54.5435 16.3147C55.0715 16.0507 55.5077 15.7006 55.8521 15.2644C56.1965 14.8167 56.4548 14.3231 56.6269 13.7836C56.8106 13.2326 56.9024 12.6701 56.9024 12.0962C56.9024 11.5222 56.8106 10.9598 56.6269 10.4088C56.4548 9.85777 56.1965 9.36417 55.8521 8.92797C55.5077 8.49176 55.0715 8.14165 54.5435 7.87763C54.0155 7.61362 53.3956 7.48161 52.6839 7.48161Z" fill="black"/>
<path d="M40.3412 18.2351C39.6635 18.2351 39.0391 18.114 38.468 17.872C37.8968 17.6203 37.4418 17.2621 37.103 16.7975C36.7642 16.3328 36.5948 15.7713 36.5948 15.113C36.5948 14.4354 36.7835 13.8546 37.1611 13.3705C37.5483 12.8768 38.0711 12.446 38.7293 12.0782V12.0636C38.4776 11.7829 38.2356 11.4586 38.0033 11.0907C37.7806 10.7132 37.6693 10.2534 37.6693 9.71124C37.6693 9.15944 37.7952 8.69961 38.0468 8.33175C38.3082 7.9542 38.6422 7.67346 39.0488 7.48953C39.4651 7.29592 39.9007 7.19911 40.3557 7.19911C40.801 7.19911 41.2221 7.29108 41.619 7.47501C42.0159 7.64926 42.3402 7.91064 42.5919 8.25914C42.8436 8.60764 42.9695 9.03359 42.9695 9.53699C42.9695 10.1372 42.7807 10.6648 42.4031 11.1198C42.0256 11.5748 41.5174 11.9717 40.8784 12.3105L43.2744 14.9824C43.4487 14.5951 43.5842 14.1498 43.681 13.6464C43.7778 13.143 43.8262 12.5719 43.8262 11.9329H45.2057C45.2057 12.8236 45.1186 13.6125 44.9443 14.2999C44.7797 14.9775 44.5474 15.568 44.2473 16.0714L46.0479 18.0753H43.9859L43.2599 17.2476C42.8436 17.5864 42.3886 17.8381 41.8949 18.0027C41.4012 18.1576 40.8833 18.2351 40.3412 18.2351ZM39.0924 9.65316C39.0924 9.96294 39.1892 10.2582 39.3828 10.5389C39.5764 10.81 39.8087 11.0956 40.0798 11.3957H40.1088C40.5348 11.1827 40.8784 10.931 41.1398 10.6406C41.4109 10.3405 41.5464 9.99682 41.5464 9.60959C41.5464 9.22237 41.4254 8.93195 41.1834 8.73833C40.951 8.53504 40.6751 8.43339 40.3557 8.43339C40.0265 8.43339 39.7313 8.54472 39.4699 8.76738C39.2182 8.98035 39.0924 9.27561 39.0924 9.65316ZM38.134 14.9824C38.134 15.5729 38.3518 16.0375 38.7874 16.3764C39.2327 16.7152 39.7797 16.8846 40.4283 16.8846C40.7865 16.8846 41.1301 16.8314 41.4593 16.7249C41.7884 16.6184 42.0885 16.449 42.3596 16.2166L39.528 12.993C39.102 13.2447 38.7632 13.5351 38.5115 13.8642C38.2598 14.1837 38.134 14.5564 38.134 14.9824Z" fill="black"/>
<g clip-path="url(#clip0_894_14613)">
<path d="M61.126 6.8739V8.38756H70.6235V9.16755C70.6235 9.16755 70.6698 16.3715 62.3654 17.472V18.7102C62.3654 18.7102 72.894 19.3988 72.894 6.8739H61.126Z" fill="black"/>
<path d="M81.6351 7.97449C81.6351 7.97449 81.7728 11.9658 73.377 13.2735V14.6848C73.377 14.6848 77.4719 14.2375 78.8137 13.2735V18.7176H80.6893V12.4655C80.6893 12.4655 82.805 11.1407 84.0786 7.97449H81.6351Z" fill="black"/>
<path d="M85.179 9.62574V10.8298H90.7875C90.7875 10.8298 91.6821 16.5079 86.4172 17.5402V18.7175C86.4172 18.7175 93.4029 18.4359 93.0934 10.8652H97.4979V9.62696H93.0239V6.39124H90.7522V9.65255L85.1777 9.62696L85.179 9.62574Z" fill="black"/>
<path d="M98.6123 6.39124V7.74524C98.6123 7.74524 101.961 8.20348 104.485 9.48924V7.01157C104.485 7.01157 101.135 6.4607 98.6123 6.39124Z" fill="black"/>
<path d="M109.486 9.48926C109.486 9.48926 109.164 16.5554 98.6123 16.4628V18.7175C98.6123 18.7175 110.128 19.3536 110.634 9.48804H109.487L109.486 9.48926Z" fill="black"/>
<path d="M112.056 6.39134C112.056 6.39134 113.34 6.18537 117.607 6.78133V9.1676C117.607 9.1676 115.6 7.76241 112.056 7.94034V6.39134Z" fill="black"/>
<path d="M112.056 10.2693H117.607V13.0224C117.607 13.0224 115.267 11.6465 112.056 11.6465V10.2705V10.2693Z" fill="black"/>
<path d="M122.838 9.16748C122.838 9.16748 123.205 16.3714 112.056 16.5091V18.7187C112.056 18.7187 123.939 19.2622 124.306 9.1687H122.838V9.16748Z" fill="black"/>
<path d="M125.452 9.67212H127.104V7.94031H129.077V9.67212H137.061C137.061 9.67212 136.189 15.5903 131.692 15.8657V14.7189C131.692 14.7189 133.757 14.4898 134.445 11.0944H129.536L130.225 18.5274H128.252L127.425 11.2321H125.452V9.67212Z" fill="black"/>
<path d="M139.125 6.35718V11.6452C139.125 11.6452 139.354 16.2788 137.061 17.8388V18.7224C137.061 18.7224 141.098 17.6548 141.098 12.3789V6.35718H139.125Z" fill="black"/>
<path d="M143.163 6.35718V18.7224C143.163 18.7224 149.816 18.7102 149.954 9.80984H148.847C148.847 9.80984 148.761 14.6275 145.136 15.9583V6.35718H143.163Z" fill="black"/>
<path d="M152.98 6.35718H155.045C155.045 6.35718 155.274 6.46077 154.678 8.5253H157.156V6.35718H158.945V8.5253H163.349V10.1316H158.991V12.541H162.739V13.8487H158.991V17.1295H163.349V18.5286H151.503V17.0601H157.34V13.8487H153.173V12.541H157.34V10.0853H154.082C154.082 10.0853 153.243 11.2443 151.329 12.3789V11.4161C151.329 11.4161 153.165 9.69528 152.98 6.35718Z" fill="black"/>
<path d="M165.69 11.8292V17.5182H170.784V11.8292H165.69ZM169.086 16.28H167.113V13.0687H169.086V16.28Z" fill="black"/>
<path d="M171.884 11.8292V18.7224H173.489V13.0675H175.417V16.2788H174.407V17.5182H176.977V11.8292H171.884Z" fill="black"/>
<path d="M172.721 6.35718H170.37C170.37 6.35718 168.626 8.20355 165.002 9.16757V10.0219C165.002 10.0219 166.06 10.039 167.113 9.62581V10.7275H175.188V9.61484C175.188 9.61484 176.384 10.1767 178.001 10.0621V9.12125C178.001 9.12125 175.282 8.90432 172.721 6.35718ZM168.099 9.55756C168.099 9.55756 170.138 8.54236 171.17 7.16641H172.013C172.013 7.16641 173.046 8.62889 174.431 9.55756H168.1H168.099Z" fill="black"/>
</g>
<defs>
<clipPath id="clip0_894_14613">
<rect width="116.874" height="12.3689" fill="white" transform="translate(61.126 6.35718)"/>
</clipPath>
</defs>
</svg>
