<svg width="350" height="48" viewBox="0 0 350 48" fill="none" xmlns="http://www.w3.org/2000/svg">
<rect width="350" height="47.7219" fill="white"/>
<rect width="36.0742" height="47.466" fill="#2A4198"/>
<rect x="16.1388" y="16.1385" width="19.9357" height="31.3276" fill="#E60044"/>
<path d="M16.6138 33.2264H6.64594C12.7216 21.0751 24.0501 20.8852 28.955 22.3092C21.3604 24.2078 17.5631 30.3784 16.6138 33.2264Z" fill="white"/>
<path d="M59.8734 34.8479V13.5218H52.1853V10.1123H71.439V13.5218H63.7509V34.8479H59.8734Z" fill="black"/>
<path d="M93.8688 34.8479V10.1123H102.326C104.309 10.1123 106.047 10.4689 107.54 11.182C109.033 11.8728 110.27 12.8087 111.251 13.9898C112.253 15.1708 113 16.4968 113.49 17.9675C114.003 19.4383 114.259 20.9425 114.259 22.4801C114.259 24.0177 114.003 25.5219 113.49 26.9927C113 28.4634 112.253 29.7894 111.251 30.9704C110.27 32.1515 109.033 33.0986 107.54 33.8117C106.047 34.5025 104.309 34.8479 102.326 34.8479H93.8688ZM102.159 13.5218H97.7796V31.405H102.159C103.54 31.405 104.743 31.1598 105.769 30.6696C106.794 30.1571 107.64 29.4774 108.309 28.6306C108.978 27.7615 109.479 26.8033 109.813 25.7559C110.17 24.6863 110.348 23.5943 110.348 22.4801C110.348 21.3659 110.17 20.274 109.813 19.2043C109.479 18.1347 108.978 17.1764 108.309 16.3296C107.64 15.4828 106.794 14.8032 105.769 14.2906C104.743 13.7781 103.54 13.5218 102.159 13.5218Z" fill="black"/>
<path d="M77.6365 35.2216C76.321 35.2216 75.1089 34.9867 74.0001 34.5169C72.8913 34.0282 72.008 33.3329 71.3502 32.4308C70.6925 31.5287 70.3636 30.4387 70.3636 29.1608C70.3636 27.8453 70.7301 26.7177 71.463 25.7781C72.2147 24.8196 73.2295 23.9833 74.5075 23.2692V23.241C74.0189 22.696 73.549 22.0664 73.098 21.3523C72.6658 20.6193 72.4496 19.7267 72.4496 18.6743C72.4496 17.6031 72.6939 16.7104 73.1826 15.9962C73.69 15.2633 74.3383 14.7183 75.1277 14.3612C75.9358 13.9854 76.7814 13.7974 77.6647 13.7974C78.5292 13.7974 79.3467 13.976 80.1172 14.3331C80.8877 14.6713 81.5173 15.1787 82.0059 15.8553C82.4946 16.5318 82.7389 17.3587 82.7389 18.336C82.7389 19.5012 82.3724 20.5254 81.6395 21.4087C80.9065 22.2919 79.9199 23.0625 78.6796 23.7202L83.3308 28.9071C83.6691 28.1554 83.9322 27.2909 84.1202 26.3137C84.3081 25.3364 84.4021 24.2276 84.4021 22.9873H87.0801C87.0801 24.7162 86.9109 26.2479 86.5727 27.5822C86.2532 28.8977 85.8021 30.0441 85.2196 31.0213L88.7151 34.9115H84.7121L83.3027 33.3047C82.4946 33.9625 81.6113 34.4511 80.6528 34.7706C79.6944 35.0712 78.6889 35.2216 77.6365 35.2216ZM75.2122 18.5615C75.2122 19.1629 75.4002 19.7361 75.776 20.2811C76.1519 20.8073 76.6029 21.3617 77.1291 21.9443H77.1855C78.0124 21.5308 78.6796 21.0422 79.187 20.4784C79.7132 19.8958 79.9763 19.2287 79.9763 18.4769C79.9763 17.7252 79.7414 17.1614 79.2715 16.7856C78.8205 16.3909 78.2849 16.1936 77.6647 16.1936C77.0258 16.1936 76.4526 16.4097 75.9452 16.8419C75.4565 17.2554 75.2122 17.8286 75.2122 18.5615ZM73.3517 28.9071C73.3517 30.0535 73.7745 30.9556 74.6202 31.6133C75.4847 32.2711 76.5465 32.6 77.8057 32.6C78.501 32.6 79.1682 32.4966 79.8071 32.2899C80.4461 32.0831 81.0287 31.7543 81.5549 31.3032L76.0579 25.0451C75.231 25.5337 74.5733 26.0975 74.0846 26.7365C73.596 27.3567 73.3517 28.0802 73.3517 28.9071Z" fill="black"/>
<g clip-path="url(#clip0_894_25691)">
<path d="M118.665 13.3442V16.2827H137.103V17.7969C137.103 17.7969 137.193 31.7819 121.071 33.9183V36.3221C121.071 36.3221 141.51 37.6589 141.51 13.3442H118.665Z" fill="black"/>
<path d="M158.479 15.4808C158.479 15.4808 158.746 23.2292 142.447 25.7679V28.5076C142.447 28.5076 150.397 27.6393 153.002 25.7679V36.3365H156.643V24.1993C156.643 24.1993 160.75 21.6275 163.222 15.4808H158.479Z" fill="black"/>
<path d="M165.358 18.6868V21.0243H176.246C176.246 21.0243 177.983 32.0471 167.762 34.0511V36.3366C167.762 36.3366 181.324 35.79 180.723 21.0929H189.273V18.6891H180.588V12.4076H176.178V18.7388L165.356 18.6891L165.358 18.6868Z" fill="black"/>
<path d="M191.437 12.4076V15.0361C191.437 15.0361 197.939 15.9257 202.839 18.4218V13.6118C202.839 13.6118 196.335 12.5425 191.437 12.4076Z" fill="black"/>
<path d="M212.546 18.4216C212.546 18.4216 211.921 32.1392 191.437 31.9594V36.3363C191.437 36.3363 213.793 37.5714 214.775 18.4192H212.548L212.546 18.4216Z" fill="black"/>
<path d="M217.533 12.4077C217.533 12.4077 220.027 12.0079 228.31 13.1648V17.7973C228.31 17.7973 224.413 15.0694 217.533 15.4148V12.4077Z" fill="black"/>
<path d="M217.533 19.9359H228.31V25.2805C228.31 25.2805 223.768 22.6094 217.533 22.6094V19.9383V19.9359Z" fill="black"/>
<path d="M238.465 17.7969C238.465 17.7969 239.177 31.7819 217.533 32.0492V36.3386C217.533 36.3386 240.603 37.3938 241.316 17.7992H238.465V17.7969Z" fill="black"/>
<path d="M243.541 18.7764H246.746V15.4144H250.577V18.7764H266.076C266.076 18.7764 264.384 30.2653 255.654 30.8V28.5737C255.654 28.5737 259.662 28.1289 260.999 21.5374H251.469L252.805 35.9672H248.975L247.371 21.8048H243.541V18.7764Z" fill="black"/>
<path d="M270.084 12.3412V22.6069C270.084 22.6069 270.528 31.6022 266.076 34.6306V36.3459C266.076 36.3459 273.914 34.2733 273.914 24.0312V12.3412H270.084Z" fill="black"/>
<path d="M277.922 12.3412V36.3459C277.922 36.3459 290.837 36.3222 291.105 19.0439H288.957C288.957 19.0439 288.789 28.3964 281.752 30.9799V12.3412H277.922Z" fill="black"/>
<path d="M296.982 12.3412H300.99C300.99 12.3412 301.435 12.5423 300.278 16.5502H305.088V12.3412H308.561V16.5502H317.112V19.6685H308.651V24.3459H315.926V26.8845H308.651V33.2536H317.112V35.9697H294.115V33.1187H305.445V26.8845H297.356V24.3459H305.445V19.5786H299.121C299.121 19.5786 297.491 21.8285 293.777 24.0312V22.1621C293.777 22.1621 297.34 18.8215 296.982 12.3412Z" fill="black"/>
<path d="M321.655 22.9644V34.0085H331.543V22.9644H321.655ZM328.247 31.6047H324.416V25.3705H328.247V31.6047Z" fill="black"/>
<path d="M333.68 22.9644V36.346H336.796V25.3681H340.539V31.6023H338.578V34.0085H343.568V22.9644H333.68Z" fill="black"/>
<path d="M335.305 12.3412H330.741C330.741 12.3412 327.356 15.9256 320.32 17.797V19.4555C320.32 19.4555 322.373 19.4886 324.417 18.6866V20.8254H340.094V18.6653C340.094 18.6653 342.415 19.756 345.554 19.5336V17.7071C345.554 17.7071 340.276 17.286 335.305 12.3412ZM326.331 18.5541C326.331 18.5541 330.29 16.5833 332.293 13.9122H333.931C333.931 13.9122 335.935 16.7513 338.625 18.5541H326.334H326.331Z" fill="black"/>
</g>
<defs>
<clipPath id="clip0_894_25691">
<rect width="226.888" height="24.0118" fill="white" transform="translate(118.665 12.3412)"/>
</clipPath>
</defs>
</svg>
