<svg width="25" height="25" viewBox="0 0 25 25" fill="none" xmlns="http://www.w3.org/2000/svg">
<g clip-path="url(#clip0_212_4871)">
<path d="M12.5 25C19.4036 25 25 19.4036 25 12.5C25 5.59644 19.4036 0 12.5 0C5.59644 0 0 5.59644 0 12.5C0 19.4036 5.59644 25 12.5 25Z" fill="#2E4193"/>
<mask id="mask0_212_4871" style="mask-type:luminance" maskUnits="userSpaceOnUse" x="5" y="7" width="15" height="12">
<path d="M19.597 7H5V18.783H19.597V7Z" fill="white"/>
</mask>
<g mask="url(#mask0_212_4871)">
<path d="M17.4789 18.1219L16.3789 16.9669C17.4478 15.8209 18.0422 14.3121 18.0422 12.7449C18.0422 11.1778 17.4478 9.66896 16.3789 8.52292L17.4789 7.36792C18.8402 8.82727 19.5973 10.7487 19.5973 12.7444C19.5973 14.7401 18.8402 16.6616 17.4789 18.1209" fill="white"/>
<path d="M15.1684 16.189L14.0684 15.034C14.6476 14.4127 14.9697 13.5949 14.9697 12.7455C14.9697 11.8961 14.6476 11.0783 14.0684 10.457L15.1684 9.302C16.0403 10.2367 16.5252 11.4673 16.5252 12.7455C16.5252 14.0237 16.0403 15.2544 15.1684 16.189Z" fill="white"/>
<path d="M7.42212 9.90797H5.50012C5.36396 9.91267 5.23513 9.97083 5.14155 10.0698C5.04796 10.1689 4.99715 10.3008 5.00012 10.437V15.346C4.99715 15.4822 5.04796 15.6141 5.14155 15.7131C5.23513 15.8121 5.36396 15.8703 5.50012 15.875H7.42212C7.67962 15.875 7.93239 15.9441 8.15412 16.075L12.6311 18.71C12.714 18.7563 12.8078 18.7796 12.9027 18.7777C12.9976 18.7757 13.0903 18.7485 13.1712 18.6987C13.2521 18.649 13.3182 18.5786 13.3629 18.4948C13.4075 18.411 13.429 18.3168 13.4251 18.222V7.55997C13.429 7.4651 13.4075 7.37091 13.3629 7.28711C13.3182 7.20331 13.2521 7.13292 13.1712 7.08321C13.0903 7.03349 12.9976 7.00624 12.9027 7.00427C12.8078 7.00229 12.714 7.02566 12.6311 7.07197L8.15312 9.70697C7.93139 9.83788 7.67862 9.90695 7.42112 9.90697" fill="white"/>
</g>
</g>
<defs>
<clipPath id="clip0_212_4871">
<rect width="25" height="25" fill="white"/>
</clipPath>
</defs>
</svg>
